<svg width="24" height="24" viewBox="0 0 24 24" fill="none" xmlns="http://www.w3.org/2000/svg">
    <path fill-rule="evenodd" clip-rule="evenodd" d="M 2 12 C 2 6.47715 6.47715 2 12 2 C 14.6522 2 17.1957 3.05357 19.0711 4.92893 C 20.9464 6.8043 22 9.34784 22 12 C 22 17.5228 17.5228 22 12 22 C 6.47715 22 2 17.5228 2 12 Z M 11.73 15.61 L 16.3 9.61 V 9.58 C 16.5179 9.29419 16.5668 8.91382 16.4283 8.58218 C 16.2897 8.25054 15.9848 8.01801 15.6283 7.97218 C 15.2718 7.92635 14.9179 8.07419 14.7 8.36 L 10.92 13.36 L 9.29 11.28 C 9.07028 10.99776 8.71668 10.85418 8.36239 10.90334 C 8.00811 10.9525 7.70696 11.18694 7.57239 11.51834 C 7.43783 11.84974 7.49028 12.2278 7.71 12.51 L 10.15 15.62 C 10.34082 15.8615 10.63222 16.0017 10.94 16 C 11.2495 15.9993 11.54121 15.8552 11.73 15.61 Z" fill="white"/>
</svg>
