<svg width="24" height="24" viewBox="0 0 24 24" fill="none" xmlns="http://www.w3.org/2000/svg">
    <rect opacity="0.01" x="24" width="24" height="24" transform="rotate(90 24 0)" fill="white"/>
    <path fill-rule="evenodd" clip-rule="evenodd" d="M 18 3 H 6 C 4.76379 3.00732 3.65865 3.7722 3.21635 4.92661 C 2.77405 6.08101 3.08517 7.38852 4 8.22 V 18 C 4 19.6569 5.34315 21 7 21 H 17 C 18.6569 21 20 19.6569 20 18 V 8.22 C 20.9148 7.38852 21.226 6.08101 20.7837 4.92661 C 20.3414 3.7722 19.2362 3.00732 18 3 Z M 15 13.13 C 15 13.6105 14.6105 14 14.13 14 H 9.87 C 9.38951 14 9 13.6105 9 13.13 V 12.87 C 9 12.3895 9.38951 12 9.87 12 H 14.13 C 14.6105 12 15 12.3895 15 12.87 V 13.13 Z M 6 7 H 18 C 18.5523 7 19 6.55228 19 6 C 19 5.44772 18.5523 5 18 5 H 6 C 5.44772 5 5 5.44772 5 6 C 5 6.55228 5.44772 7 6 7 Z" fill="white"/>
</svg>
