<svg width="24" height="24" viewBox="0 0 24 24" fill="none" xmlns="http://www.w3.org/2000/svg">
    <path fill-rule="evenodd" clip-rule="evenodd" d="M 2 12 C 2 6.47715 6.47715 2 12 2 C 14.6522 2 17.1957 3.05357 19.0711 4.92893 C 20.9464 6.8043 22 9.34784 22 12 C 22 17.5228 17.5228 22 12 22 C 6.47715 22 2 17.5228 2 12 Z M 15.0058 14 C 15.0058 13.7334 14.8993 13.4778 14.71 13.29 L 13.41 12 L 14.71 10.71 C 15.1021 10.31788 15.1021 9.68212 14.71 9.29 C 14.3179 8.89788 13.6821 8.89788 13.29 9.29 L 12 10.59 L 10.71 9.29 C 10.31788 8.89788 9.68212 8.89788 9.29 9.29 C 8.89788 9.68212 8.89788 10.31788 9.29 10.71 L 10.59 12 L 9.29 13.29 C 9.10069 13.4778 8.9942 13.7334 8.9942 14 C 8.9942 14.2666 9.10069 14.5222 9.29 14.71 C 9.47777 14.8993 9.73336 15.0058 10 15.0058 C 10.26664 15.0058 10.52223 14.8993 10.71 14.71 L 12 13.41 L 13.29 14.71 C 13.4778 14.8993 13.7334 15.0058 14 15.0058 C 14.2666 15.0058 14.5222 14.8993 14.71 14.71 C 14.8993 14.5222 15.0058 14.2666 15.0058 14 Z" fill="white"/>
</svg>
