<svg width="24" height="24" viewBox="0 0 24 24" fill="none" xmlns="http://www.w3.org/2000/svg">
    <path fill-rule="evenodd" clip-rule="evenodd" d="M 17 7.52 L 21.6 11.22 C 21.8463 11.4046 21.9938 11.6923 22 12 V 16 C 22 16.5523 21.5523 17 21 17 H 20.8 C 21.252 18.2453 20.8336 19.6396 19.7708 20.4304 C 18.7079 21.2212 17.2521 21.2212 16.1892 20.4304 C 15.1264 17.6396 14.708 18.2453 15.16 17 H 8.8 C 9.25289 18.2595 8.81666 19.6667 7.73074 20.4491 C 6.64482 21.2315 5.17193 21.2 4.12053 20.3717 C 3.06912 19.5435 2.69357 18.1189 3.2 16.88 C 2.45527 16.5552 1.981015 15.8122 1.999999 15 V 5 C 1.948749 3.955797 2.74653 3.0644265 3.79 3 H 15.19 C 16.2414 3.0538855 17.051 3.948426 17 5 V 7.52 Z M 20 15 V 12.48 L 17 10.08 V 15 H 20 Z M 7 18 C 7 18.5523 6.55228 19 6 19 C 5.44771 19 5 18.5523 5 18 C 5 17.4477 5.44771 17 6 17 C 6.55228 17 7 17.4477 7 18 Z M 18 19 C 18.5523 19 19 18.5523 19 18 C 19 17.4477 18.5523 17 18 17 C 17.4477 17 17 17.4477 17 18 C 17 18.5523 17.4477 19 18 19 Z" fill="black"/>
</svg>
