<svg width="24" height="24" viewBox="0 0 24 24" fill="none" xmlns="http://www.w3.org/2000/svg">
    <rect opacity="0.01" x="24" y="24" width="24" height="24" transform="rotate(180 24 24)" fill="white"/>
    <path d="M 12 6 C 12.5523 6 13 5.55228 13 5 V 3 C 13 2.44772 12.5523 2 12 2 C 11.4477 2 11 2.44772 11 3 V 5 C 11 5.55228 11.4477 6 12 6 Z" fill="black"/>
    <path d="M 21 11 H 19 C 18.4477 11 18 11.4477 18 12 C 18 12.5523 18.4477 13 19 13 H 21 C 21.5523 13 22 12.5523 22 12 C 22 11.4477 21.5523 11 21 11 Z" fill="black"/>
    <path d="M 6 12 C 6 11.4477 5.55228 11 5 11 H 3 C 2.44772 11 2 11.4477 2 12 C 2 12.5523 2.44772 13 3 13 H 5 C 5.55228 13 6 12.5523 6 12 Z" fill="black"/>
    <path d="M 6.22 4.99995 C 5.81407 4.61611 5.17384 4.63402 4.79 5.03995 C 4.40616 5.44588 4.42407 6.08611 4.83 6.46995 L 6.27 7.85995 C 6.46525 8.04848 6.72875 8.14955 7 8.13995 C 7.27219 8.13891 7.53219 8.02696 7.72 7.82995 C 8.10772 7.43991 8.10772 6.80999 7.72 6.41995 L 6.22 4.99995 Z" fill="black"/>
    <path d="M 17 8.14 C 17.2575 8.13898 17.5046 8.03869 17.69 7.86 L 19.13 6.47 C 19.4946 6.08908 19.5007 5.49053 19.1441 5.10217 C 18.7874 4.71382 18.1905 4.66911 17.78 5 L 16.34 6.42 C 15.9523 6.81004 15.9523 7.43997 16.34 7.83 C 16.5131 8.01272 16.7488 8.12342 17 8.14 Z" fill="black"/>
    <path d="M 12 18 C 11.4477 18 11 18.4477 11 19 V 21 C 11 21.5523 11.4477 22 12 22 C 12.5523 22 13 21.5523 13 21 V 19 C 13 18.4477 12.5523 18 12 18 Z" fill="black"/>
    <path d="M 17.73 16.14 C 17.3324 15.7561 16.6988 15.7673 16.315 16.165 C 15.9312 16.5626 15.9424 17.1961 16.34 17.58 L 17.78 19 C 17.9654 19.1786 18.2125 19.2789 18.47 19.28 C 18.7407 19.2815 19.0005 19.1733 19.19 18.98 C 19.3793 18.7922 19.4858 18.5366 19.4858 18.27 C 19.4858 18.0033 19.3793 17.7477 19.19 17.56 L 17.73 16.14 Z" fill="black"/>
    <path d="M 6.27 16.14 L 4.83 17.53 C 4.64069 17.7178 4.5342 17.9734 4.5342 18.24 C 4.5342 18.5066 4.64069 18.7622 4.83 18.95 C 5.0195 19.1433 5.27929 19.2516 5.55 19.25 C 5.79651 19.2521 6.03512 19.1631 6.22 19 L 7.66 17.61 C 8.05765 17.2262 8.06884 16.5926 7.685 16.195 C 7.30116 15.7974 6.66765 15.7862 6.27 16.17 V 16.14 Z" fill="black"/>
    <path d="M 12 8 C 9.79086 8 8 9.79086 8 12 C 8 14.2091 9.79086 16 12 16 C 14.2091 16 16 14.2091 16 12 C 16 9.79086 14.2091 8 12 8 V 8 Z" fill="black"/>
</svg>
